<svg width="21" height="22" viewBox="0 0 21 22" fill="none" xmlns="http://www.w3.org/2000/svg">
<path d="M10.5 9.25V12.75M8.9845 10.125L12.0155 11.875M12.0155 10.125L8.98363 11.875M5.8905 9.25V12.75M4.375 10.125L7.406 11.875M7.406 10.125L4.375 11.875M15.1095 9.25V12.75M13.594 10.125L16.625 11.875M16.625 10.125L13.5931 11.875M19.25 11C19.25 14.2996 19.25 15.9499 18.2245 16.9745C17.199 17.9991 15.5496 18 12.25 18H8.75C5.45038 18 3.80013 18 2.7755 16.9745C1.75087 15.949 1.75 14.2996 1.75 11C1.75 7.70038 1.75 6.05013 2.7755 5.0255C3.801 4.00087 5.45038 4 8.75 4H12.25C15.5496 4 17.1999 4 18.2245 5.0255C18.7967 5.59687 19.0496 6.3625 19.1608 7.5" stroke="white" stroke-linecap="round"/>
</svg>
