<svg width="19" height="20" viewBox="0 0 19 20" fill="none" xmlns="http://www.w3.org/2000/svg">
<path d="M9.49998 8.41659C11.2489 8.41659 12.6666 6.99882 12.6666 5.24992C12.6666 3.50102 11.2489 2.08325 9.49998 2.08325C7.75108 2.08325 6.33331 3.50102 6.33331 5.24992C6.33331 6.99882 7.75108 8.41659 9.49998 8.41659Z" stroke="white"/>
<path d="M15.8317 14.7498C15.8328 14.62 15.8333 14.4881 15.8333 14.354C15.8333 12.3867 12.9976 10.7915 9.49999 10.7915C6.00241 10.7915 3.16666 12.3867 3.16666 14.354C3.16666 16.3213 3.16666 17.9165 9.49999 17.9165C11.2662 17.9165 12.54 17.7922 13.4583 17.5705" stroke="white" stroke-linecap="round"/>
</svg>
