<svg width="40" height="40" viewBox="0 0 40 40" fill="none" xmlns="http://www.w3.org/2000/svg">
<path d="M20 1C30.4934 1 39 9.50659 39 20C39 30.4934 30.4934 39 20 39C9.50659 39 1 30.4934 1 20C1 9.50659 9.50659 1 20 1Z" stroke="#FFF9F9" stroke-width="2"/>
<path d="M19.4999 24.3334H19.5095M19.4999 17.0834V20.7084M17.778 11.3039L9.24957 25.5417C9.07385 25.8463 8.98091 26.1915 8.97999 26.5431C8.97906 26.8947 9.07019 27.2404 9.2443 27.5459C9.41842 27.8513 9.66945 28.1059 9.97245 28.2843C10.2755 28.4626 10.6199 28.5586 10.9714 28.5625H28.0283C28.38 28.5589 28.7246 28.4632 29.0278 28.2849C29.3311 28.1066 29.5823 27.852 29.7565 27.5465C29.9306 27.2409 30.0217 26.895 30.0206 26.5432C30.0195 26.1915 29.9263 25.8462 29.7502 25.5417L21.2229 11.3039C21.0436 11.0078 20.7909 10.7629 20.4893 10.593C20.1876 10.423 19.8473 10.3337 19.5011 10.3337C19.1549 10.3337 18.8145 10.423 18.5129 10.593C18.2113 10.7629 17.9586 11.0078 17.7792 11.3039" stroke="#FFF9F9" stroke-width="1.5" stroke-miterlimit="10" stroke-linecap="round" stroke-linejoin="round"/>
</svg>
