<svg width="38" height="38" viewBox="0 0 38 38" fill="none" xmlns="http://www.w3.org/2000/svg">
<path d="M31.7032 14.0939C30.4069 14.1277 29.15 13.647 28.2072 12.7567C27.2644 11.8665 26.7124 10.6392 26.6719 9.3431C26.6952 8.41755 26.98 7.5175 27.4933 6.74697L30.6592 2.03647C30.7808 1.87451 30.9385 1.74307 31.1197 1.65254C31.3009 1.56202 31.5006 1.51489 31.7032 1.51489C31.9057 1.51489 32.1055 1.56202 32.2867 1.65254C32.4679 1.74307 32.6255 1.87451 32.7472 2.03647L35.8728 6.68534C36.4071 7.47123 36.706 8.39324 36.7344 9.3431C36.694 10.6392 36.142 11.8665 35.1992 12.7567C34.2564 13.647 32.9994 14.1277 31.7032 14.0939ZM31.7032 4.99107L29.6202 8.08906C29.3606 8.45786 29.2105 8.89263 29.1875 9.3431C29.2606 9.95901 29.557 10.5267 30.0206 10.9387C30.4843 11.3506 31.083 11.5782 31.7032 11.5782C32.3234 11.5782 32.9221 11.3506 33.3857 10.9387C33.8494 10.5267 34.1458 9.95901 34.2188 9.3431C34.1892 8.86836 34.0257 8.41172 33.7471 8.02617L31.7032 4.99107ZM28.5586 36.7345H9.69146C7.66519 36.7366 5.7104 35.9858 4.20657 34.6278C2.70274 33.2698 1.75716 31.4014 1.5534 29.3854C1.34964 27.3694 1.90223 25.3496 3.1039 23.7181C4.30557 22.0866 6.07058 20.9598 8.0563 20.5565C8.59227 18.018 9.98452 15.7408 11.9997 14.1067C14.0149 12.4725 16.5306 11.5807 19.1251 11.5807C21.7195 11.5807 24.2352 12.4725 26.2504 14.1067C28.2656 15.7408 29.6578 18.018 30.1938 20.5565C32.1795 20.9598 33.9445 22.0866 35.1462 23.7181C36.3479 25.3496 36.9005 27.3694 36.6967 29.3854C36.4929 31.4014 35.5474 33.2698 34.0435 34.6278C32.5397 35.9858 30.5849 36.7366 28.5586 36.7345ZM19.1251 14.0939C16.9776 14.0959 14.9049 14.8827 13.297 16.3062C11.6891 17.7297 10.6569 19.6917 10.3946 21.8231L10.2688 22.8445L9.24368 22.925C7.78367 23.0361 6.42369 23.7092 5.44988 24.8027C4.47606 25.8962 3.96432 27.3247 4.02233 28.7878C4.08034 30.2509 4.70357 31.6344 5.7609 32.6474C6.81823 33.6603 8.22723 34.2236 9.69146 34.2189H28.5586C30.0229 34.2236 31.4319 33.6603 32.4892 32.6474C33.5465 31.6344 34.1698 30.2509 34.2278 28.7878C34.2858 27.3247 33.774 25.8962 32.8002 24.8027C31.8264 23.7092 30.4664 23.0361 29.0064 22.925L27.9813 22.8445L27.8568 21.8231C27.5945 19.6915 26.5621 17.7293 24.9539 16.3057C23.3458 14.8822 21.2727 14.0956 19.1251 14.0939Z" fill="#52FFEB" stroke="#20CBB7" stroke-width="1.5"/>
</svg>
