<svg width="52" height="52" viewBox="0 0 52 52" fill="none" xmlns="http://www.w3.org/2000/svg">
<path d="M37.375 13H45.5M6.5 13H30.875M37.375 39H45.5M6.5 39H30.875M21.125 26H45.5M6.5 26H14.625" stroke="white" stroke-width="2" stroke-linecap="round" stroke-linejoin="round"/>
<path d="M34.125 16.25C35.9199 16.25 37.375 14.7949 37.375 13C37.375 11.2051 35.9199 9.75 34.125 9.75C32.3301 9.75 30.875 11.2051 30.875 13C30.875 14.7949 32.3301 16.25 34.125 16.25Z" stroke="white" stroke-width="2" stroke-linecap="round" stroke-linejoin="round"/>
<path d="M17.875 29.25C19.6699 29.25 21.125 27.7949 21.125 26C21.125 24.2051 19.6699 22.75 17.875 22.75C16.0801 22.75 14.625 24.2051 14.625 26C14.625 27.7949 16.0801 29.25 17.875 29.25Z" stroke="white" stroke-width="2" stroke-linecap="round" stroke-linejoin="round"/>
<path d="M34.125 42.25C35.9199 42.25 37.375 40.7949 37.375 39C37.375 37.2051 35.9199 35.75 34.125 35.75C32.3301 35.75 30.875 37.2051 30.875 39C30.875 40.7949 32.3301 42.25 34.125 42.25Z" stroke="white" stroke-width="2" stroke-linecap="round" stroke-linejoin="round"/>
</svg>
