<svg width="40" height="40" viewBox="0 0 40 40" fill="none" xmlns="http://www.w3.org/2000/svg">
<path d="M20 1C30.4934 1 39 9.50659 39 20C39 30.4934 30.4934 39 20 39C9.50659 39 1 30.4934 1 20C1 9.50659 9.50659 1 20 1Z" stroke="#FFF9F9" stroke-width="2"/>
<path d="M24.6665 13C28.5326 13 31.6665 16.134 31.6665 20C31.6665 23.866 28.5326 27 24.6665 27H15.3333C11.4672 27 8.33325 23.866 8.33325 20C8.33325 16.134 11.4672 13 15.3333 13H24.6665ZM24.6665 15.3334H15.3333C12.7559 15.3334 10.6665 17.4227 10.6665 20C10.6665 22.4992 12.6312 24.5396 15.1003 24.661L15.3333 24.6666H24.6665C27.2439 24.6666 29.3333 22.5773 29.3333 20C29.3333 17.5008 27.3686 15.4604 24.8995 15.339L24.6665 15.3334ZM15.3333 16.5C17.2662 16.5 18.8333 18.067 18.8333 20C18.8333 21.933 17.2662 23.5 15.3333 23.5C13.4003 23.5 11.8333 21.933 11.8333 20C11.8333 18.067 13.4002 16.5 15.3333 16.5Z" fill="white"/>
</svg>
