<svg width="48" height="48" viewBox="0 0 48 48" fill="none" xmlns="http://www.w3.org/2000/svg">
<path d="M24 0.5C36.9787 0.5 47.5 11.0213 47.5 24C47.5 36.9787 36.9787 47.5 24 47.5C11.0213 47.5 0.5 36.9787 0.5 24C0.5 11.0213 11.0213 0.5 24 0.5Z" stroke="#FFF9F9"/>
<path d="M12 14.6667C12 13.9594 12.2655 13.2811 12.7381 12.781C13.2107 12.281 13.8517 12 14.52 12H22.08V36H14.52C13.8517 36 13.2107 35.719 12.7381 35.219C12.2655 34.7189 12 34.0406 12 33.3333V14.6667ZM27.12 12H34.68C35.3483 12 35.9893 12.281 36.4619 12.781C36.9345 13.2811 37.2 13.9594 37.2 14.6667V21.3333H27.12V12ZM27.12 26.6667H37.2V33.3333C37.2 34.0406 36.9345 34.7189 36.4619 35.219C35.9893 35.719 35.3483 36 34.68 36H27.12V26.6667Z" stroke="white" stroke-linecap="round" stroke-linejoin="round"/>
</svg>
