<svg width="40" height="40" viewBox="0 0 40 40" fill="none" xmlns="http://www.w3.org/2000/svg">
<path d="M20 1C30.4934 1 39 9.50659 39 20C39 30.4934 30.4934 39 20 39C9.50659 39 1 30.4934 1 20C1 9.50659 9.50659 1 20 1Z" stroke="#FFF9F9" stroke-width="2"/>
<path d="M10 12.2222C10 11.6329 10.2212 11.0676 10.6151 10.6509C11.0089 10.2341 11.543 10 12.1 10H18.4V30H12.1C11.543 30 11.0089 29.7659 10.6151 29.3491C10.2212 28.9324 10 28.3671 10 27.7778V12.2222ZM22.6 10H28.9C29.457 10 29.9911 10.2341 30.3849 10.6509C30.7788 11.0676 31 11.6329 31 12.2222V17.7778H22.6V10ZM22.6 22.2222H31V27.7778C31 28.3671 30.7788 28.9324 30.3849 29.3491C29.9911 29.7659 29.457 30 28.9 30H22.6V22.2222Z" stroke="white" stroke-width="2" stroke-linecap="round" stroke-linejoin="round"/>
</svg>
