<svg width="28" height="39" viewBox="0 0 28 39" fill="none" xmlns="http://www.w3.org/2000/svg">
<path fill-rule="evenodd" clip-rule="evenodd" d="M9.74782 37.0085C11.1128 37.6679 12.6091 38.0104 14.125 38.0104C15.6409 38.0104 17.1372 37.6679 18.5022 37.0085L18.8292 36.85C19.6807 36.4387 20.399 35.7957 20.9018 34.9948C21.4046 34.1939 21.6715 33.2675 21.6719 32.3219V31.1446C21.6719 27.7434 23.624 24.7121 25.5459 21.9047C26.9674 19.8261 27.7945 17.399 27.9384 14.8849C28.0822 12.3709 27.5372 9.86528 26.3621 7.63813C25.187 5.41099 23.4263 3.54677 21.2699 2.24639C19.1135 0.946012 16.6431 0.258789 14.125 0.258789C11.6069 0.258789 9.13647 0.946012 6.98007 2.24639C4.82367 3.54677 3.06305 5.41099 1.88795 7.63813C0.712846 9.86528 0.167834 12.3709 0.311649 14.8849C0.455465 17.399 1.28265 19.8261 2.70407 21.9047C4.626 24.7121 6.57813 27.7434 6.57813 31.1471V32.3219C6.57806 33.2679 6.84474 34.1949 7.34755 34.9962C7.85036 35.7976 8.56892 36.441 9.42078 36.8525L9.74782 37.0085ZM16.862 33.6124L17.189 33.4514C17.4017 33.3484 17.581 33.1876 17.7065 32.9874C17.8319 32.7871 17.8985 32.5556 17.8984 32.3194V31.1446C17.8984 30.7169 17.9194 30.2976 17.9613 29.8868C15.4584 30.6341 12.7916 30.6341 10.2887 29.8868C10.3289 30.2976 10.3499 30.7169 10.3516 31.1446V32.3194C10.3516 32.5556 10.4181 32.7871 10.5436 32.9874C10.669 33.1876 10.8483 33.3484 11.061 33.4514L11.388 33.6099C12.2414 34.0224 13.1771 34.2367 14.125 34.2367C15.0729 34.2367 16.0086 34.0249 16.862 33.6124ZM5.81841 19.7714C6.80957 21.2204 8.05983 23.0468 8.99564 25.175C10.5278 26.1528 12.3074 26.6724 14.125 26.6724C15.9426 26.6724 17.7223 26.1528 19.2544 25.175C20.1902 23.0468 21.4404 21.2204 22.4341 19.7714C23.4673 18.2596 24.0683 16.4945 24.1725 14.6664C24.2766 12.8382 23.88 11.0163 23.0252 9.39692C22.1705 7.77754 20.8901 6.42209 19.3219 5.47661C17.7538 4.53113 15.9574 4.03147 14.1263 4.03147C12.2951 4.03147 10.4987 4.53113 8.9306 5.47661C7.36246 6.42209 6.08204 7.77754 5.22729 9.39692C4.37255 11.0163 3.97589 12.8382 4.08006 14.6664C4.18422 16.4945 4.78526 18.2596 5.81841 19.7714Z" fill="#F7D065"/>
<path d="M14.125 7.80469C13.6246 7.80469 13.1447 8.00347 12.7909 8.35729C12.4371 8.71112 12.2383 9.19102 12.2383 9.69141C12.2383 10.1918 12.4371 10.6717 12.7909 11.0255C13.1447 11.3793 13.6246 11.5781 14.125 11.5781C14.7922 11.5781 15.432 11.8432 15.9038 12.3149C16.3756 12.7867 16.6406 13.4266 16.6406 14.0938C16.6406 14.5941 16.8394 15.074 17.1932 15.4279C17.5471 15.7817 18.027 15.9805 18.5273 15.9805C19.0277 15.9805 19.5076 15.7817 19.8615 15.4279C20.2153 15.074 20.4141 14.5941 20.4141 14.0938C20.4141 12.4258 19.7515 10.8261 18.572 9.64671C17.3926 8.46728 15.793 7.80469 14.125 7.80469Z" fill="#F7D065"/>
</svg>
