<svg width="40" height="40" viewBox="0 0 40 40" fill="none" xmlns="http://www.w3.org/2000/svg">
<path d="M20 1C30.4934 1 39 9.50659 39 20C39 30.4934 30.4934 39 20 39C9.50659 39 1 30.4934 1 20C1 9.50659 9.50659 1 20 1Z" stroke="#FFF9F9" stroke-width="2"/>
<path d="M29.1513 16.0579L28.7319 15.8241L28.6024 15.7508C28.2901 15.5633 28.0269 15.3041 27.8347 14.9945C27.8141 14.9636 27.7958 14.9304 27.7591 14.8662C27.5121 14.4697 27.3921 14.0071 27.4154 13.5405L27.4222 13.0535C27.436 12.2743 27.4429 11.8825 27.3329 11.5318C27.2355 11.2199 27.0726 10.9323 26.855 10.6885C26.6098 10.4135 26.2695 10.2164 25.5878 9.82454L25.0217 9.49798C24.3434 9.10725 24.0031 8.91131 23.6421 8.83683C23.3232 8.77085 22.9939 8.77358 22.6762 8.84485C22.3175 8.92506 21.9818 9.12673 21.3115 9.52777L21.3081 9.53006L20.9024 9.77183C20.8383 9.81079 20.805 9.82912 20.773 9.84746C20.4544 10.0251 20.0992 10.1225 19.7337 10.1339C19.697 10.1362 19.6592 10.1362 19.5847 10.1362L19.4358 10.1351C19.0701 10.1234 18.7126 10.0244 18.3931 9.84631C18.361 9.82912 18.33 9.80965 18.2659 9.77069L17.8568 9.52548C17.1819 9.11985 16.8439 8.91819 16.483 8.83683C16.164 8.76544 15.8335 8.7631 15.5136 8.82996C15.1515 8.90558 14.8123 9.10267 14.1329 9.49683L14.1294 9.49798L13.5703 9.82225L13.5645 9.82683C12.8908 10.2164 12.5528 10.4135 12.3098 10.6874C12.0934 10.9307 11.9313 11.2174 11.8343 11.5284C11.7255 11.8802 11.7312 12.272 11.7449 13.0558L11.753 13.5416C11.753 13.6161 11.7564 13.6528 11.7553 13.6883C11.7493 14.1046 11.6301 14.5114 11.4104 14.8651C11.3725 14.9292 11.3554 14.9613 11.3359 14.9911C11.1427 15.303 10.8774 15.5639 10.5624 15.7519L10.4341 15.8241L10.0205 16.0533C9.33067 16.4349 8.98577 16.6262 8.73598 16.8989C8.5139 17.1394 8.34589 17.4246 8.24327 17.7354C8.12869 18.0871 8.12869 18.4802 8.12984 19.2685L8.13213 19.9136C8.13328 20.6962 8.13557 21.0869 8.2513 21.4364C8.35349 21.7453 8.52028 22.0289 8.74057 22.2683C8.99036 22.5387 9.33182 22.7289 10.0159 23.1093L10.4261 23.3374C10.496 23.3763 10.5315 23.3946 10.5647 23.4153C10.9238 23.6305 11.2171 23.94 11.4126 24.3102L11.4894 24.4477C11.683 24.8131 11.774 25.2241 11.753 25.637L11.7449 26.1034C11.7312 26.8894 11.7255 27.2836 11.8355 27.6354C11.9329 27.947 12.0956 28.2346 12.3133 28.4787C12.5585 28.7537 12.8999 28.9496 13.5806 29.3427L14.1466 29.6692C14.8261 30.06 15.1653 30.2559 15.5262 30.3304C15.8451 30.3964 16.1744 30.3936 16.4921 30.3224C16.8519 30.2421 17.1876 30.0405 17.8603 29.6371L18.2659 29.3942L18.3954 29.3186C18.7139 29.1421 19.0691 29.0436 19.4346 29.0321L19.5836 29.031H19.7325C20.0969 29.0425 20.4544 29.1421 20.7753 29.3198L20.8807 29.3828L21.3115 29.6417C21.9875 30.0474 22.3244 30.249 22.6854 30.3292C23.0041 30.4014 23.3346 30.4045 23.6547 30.3384C24.0157 30.2628 24.3571 30.0645 25.0366 29.6704L25.6038 29.3415C26.2775 28.9496 26.6156 28.7537 26.8585 28.4799C27.0762 28.2358 27.2366 27.9493 27.334 27.6388C27.4429 27.2893 27.4371 26.9009 27.4234 26.1286L27.4142 25.6244V25.4789C27.4196 25.0623 27.5384 24.6551 27.758 24.301L27.8324 24.175C28.0256 23.8631 28.2909 23.6022 28.6059 23.4141L28.7319 23.3442L28.7342 23.3431L29.1479 23.1139C29.8376 22.7312 30.1825 22.541 30.4335 22.2683C30.6558 22.0277 30.8231 21.7412 30.925 21.4318C31.0396 21.0824 31.0396 20.6905 31.0373 19.9113L31.035 19.2536C31.0339 18.471 31.0328 18.0791 30.917 17.7296C30.8143 17.4211 30.6472 17.1379 30.4266 16.8989C30.178 16.6285 29.8365 16.4383 29.1536 16.059L29.1513 16.0579Z" stroke="white" stroke-width="2" stroke-linecap="round" stroke-linejoin="round"/>
<path d="M15.0002 19.5836C15.0002 20.7992 15.4831 21.9649 16.3427 22.8245C17.2022 23.684 18.368 24.1669 19.5836 24.1669C20.7992 24.1669 21.9649 23.684 22.8245 22.8245C23.684 21.9649 24.1669 20.7992 24.1669 19.5836C24.1669 18.368 23.684 17.2022 22.8245 16.3427C21.9649 15.4831 20.7992 15.0002 19.5836 15.0002C18.368 15.0002 17.2022 15.4831 16.3427 16.3427C15.4831 17.2022 15.0002 18.368 15.0002 19.5836Z" stroke="white" stroke-width="2" stroke-linecap="round" stroke-linejoin="round"/>
</svg>
