<svg width="48" height="48" viewBox="0 0 48 48" fill="none" xmlns="http://www.w3.org/2000/svg">
<path d="M24 0.5C36.9787 0.5 47.5 11.0213 47.5 24C47.5 36.9787 36.9787 47.5 24 47.5C11.0213 47.5 0.5 36.9787 0.5 24C0.5 11.0213 11.0213 0.5 24 0.5Z" stroke="#FFF9F9"/>
<path d="M34.9814 19.269L34.4781 18.9885L34.3227 18.9005C33.9479 18.6755 33.6321 18.3644 33.4015 17.993C33.3767 17.9559 33.3547 17.916 33.3107 17.839C33.0143 17.3632 32.8704 16.8081 32.8982 16.2481L32.9065 15.6638C32.923 14.7288 32.9312 14.2585 32.7992 13.8378C32.6825 13.4634 32.487 13.1184 32.2259 12.8258C31.9316 12.4958 31.5232 12.2593 30.7051 11.789L30.0259 11.3971C29.2119 10.9283 28.8035 10.6931 28.3704 10.6038C27.9877 10.5246 27.5925 10.5279 27.2112 10.6134C26.7809 10.7096 26.378 10.9516 25.5736 11.4329L25.5695 11.4356L25.0827 11.7258C25.0057 11.7725 24.9659 11.7945 24.9274 11.8165C24.5451 12.0296 24.1189 12.1465 23.6802 12.1603C23.6362 12.163 23.5909 12.163 23.5015 12.163L23.3227 12.1616C22.884 12.1477 22.4549 12.0288 22.0715 11.8151C22.033 11.7945 21.9959 11.7711 21.9189 11.7244L21.428 11.4301C20.6181 10.9434 20.2125 10.7014 19.7794 10.6038C19.3966 10.5181 19 10.5153 18.6161 10.5955C18.1816 10.6863 17.7746 10.9228 16.9592 11.3958L16.9551 11.3971L16.2841 11.7863L16.2772 11.7918C15.4687 12.2593 15.0631 12.4958 14.7716 12.8244C14.5118 13.1164 14.3173 13.4605 14.201 13.8336C14.0704 14.2558 14.0772 14.726 14.0937 15.6665L14.1034 16.2495C14.1034 16.3389 14.1075 16.3829 14.1061 16.4255C14.099 16.9251 13.9559 17.4133 13.6922 17.8376C13.6469 17.9146 13.6262 17.9531 13.6029 17.9889C13.371 18.3631 13.0527 18.6762 12.6747 18.9019L12.5207 18.9885L12.0244 19.2635C11.1966 19.7214 10.7827 19.951 10.483 20.2783C10.2165 20.5668 10.0149 20.909 9.89173 21.282C9.75423 21.7041 9.75423 22.1758 9.75561 23.1218L9.75836 23.8959C9.75973 24.835 9.76248 25.3039 9.90136 25.7233C10.024 26.0939 10.2241 26.4342 10.4885 26.7215C10.7882 27.046 11.198 27.2743 12.0189 27.7308L12.5111 28.0044C12.595 28.0511 12.6376 28.0731 12.6775 28.0979C13.1084 28.3562 13.4603 28.7276 13.695 29.1718L13.7871 29.3368C14.0194 29.7753 14.1286 30.2684 14.1034 30.764L14.0937 31.3236C14.0772 32.2669 14.0704 32.7399 14.2024 33.162C14.3192 33.536 14.5145 33.8811 14.7757 34.174C15.07 34.504 15.4797 34.7391 16.2965 35.2108L16.9757 35.6026C17.7911 36.0715 18.1981 36.3066 18.6312 36.396C19.0139 36.4752 19.4091 36.4719 19.7904 36.3864C20.2221 36.2901 20.625 36.0481 21.4321 35.5641L21.9189 35.2726L22.0742 35.1819C22.4565 34.9701 22.8827 34.8519 23.3214 34.8381L23.5001 34.8368H23.6789C24.1161 34.8505 24.5451 34.9701 24.9301 35.1833L25.0566 35.2589L25.5736 35.5696C26.3849 36.0564 26.7891 36.2984 27.2222 36.3946C27.6048 36.4812 28.0014 36.485 28.3855 36.4056C28.8186 36.3149 29.2284 36.077 30.0437 35.604L30.7244 35.2094C31.5329 34.7391 31.9385 34.504 32.23 34.1754C32.4912 33.8825 32.6837 33.5388 32.8006 33.1661C32.9312 32.7468 32.9244 32.2806 32.9079 31.3539L32.8969 30.7489V30.5743C32.9033 30.0744 33.0459 29.5857 33.3094 29.1608L33.3987 29.0095C33.6306 28.6353 33.9489 28.3222 34.3269 28.0965L34.4781 28.0126L34.4809 28.0113L34.9772 27.7363C35.805 27.277 36.2189 27.0488 36.52 26.7215C36.7867 26.4328 36.9875 26.089 37.1099 25.7178C37.2474 25.2984 37.2474 24.8281 37.2446 23.8931L37.2419 23.1039C37.2405 22.1648 37.2391 21.6945 37.1002 21.2751C36.977 20.9049 36.7764 20.565 36.5117 20.2783C36.2134 19.9538 35.8036 19.7255 34.9841 19.2704L34.9814 19.269Z" stroke="white" stroke-linecap="round" stroke-linejoin="round"/>
<path d="M18 23.5C18 24.9587 18.5795 26.3576 19.6109 27.3891C20.6424 28.4205 22.0413 29 23.5 29C24.9587 29 26.3576 28.4205 27.3891 27.3891C28.4205 26.3576 29 24.9587 29 23.5C29 22.0413 28.4205 20.6424 27.3891 19.6109C26.3576 18.5795 24.9587 18 23.5 18C22.0413 18 20.6424 18.5795 19.6109 19.6109C18.5795 20.6424 18 22.0413 18 23.5Z" stroke="white" stroke-linecap="round" stroke-linejoin="round"/>
</svg>
