<svg width="42" height="42" viewBox="0 0 42 42" fill="none" xmlns="http://www.w3.org/2000/svg">
<path d="M16.6875 22.8113V6.625C16.6875 5.10001 16.0817 3.63747 15.0034 2.55914C13.925 1.4808 12.4625 0.875 10.9375 0.875C9.41251 0.875 7.94997 1.4808 6.87164 2.55914C5.7933 3.63747 5.1875 5.10001 5.1875 6.625V22.8113C3.42946 24.0354 2.10798 25.7887 1.41539 27.8159C0.722801 29.8431 0.695258 32.0384 1.33677 34.0823C1.97828 36.1263 3.25536 37.9121 4.98213 39.18C6.70891 40.4479 8.79525 41.1316 10.9375 41.1316C13.0797 41.1316 15.1661 40.4479 16.8929 39.18C18.6196 37.9121 19.8967 36.1263 20.5382 34.0823C21.1797 32.0384 21.1522 29.8431 20.4596 27.8159C19.767 25.7887 18.4455 24.0354 16.6875 22.8113ZM10.9375 3.75C11.7 3.75 12.4313 4.0529 12.9704 4.59207C13.5096 5.13124 13.8125 5.8625 13.8125 6.625V16.6875H8.0625V6.625C8.0625 5.8625 8.3654 5.13124 8.90457 4.59207C9.44374 4.0529 10.175 3.75 10.9375 3.75ZM10.9375 38.25C9.35534 38.2499 7.81742 37.7278 6.56223 36.7646C5.30704 35.8015 4.40473 34.451 3.99523 32.9228C3.58573 31.3945 3.69193 29.7739 4.29736 28.3121C4.90278 26.8504 5.9736 25.6293 7.34375 24.8381L8.0625 24.4356V19.5625H13.8125V24.4356L14.5312 24.8381C15.9014 25.6293 16.9722 26.8504 17.5776 28.3121C18.1831 29.7739 18.2893 31.3945 17.8798 32.9228C17.4703 34.451 16.568 35.8015 15.3128 36.7646C14.0576 37.7278 12.5197 38.2499 10.9375 38.25ZM26.75 3.75H41.125V6.625H26.75V3.75ZM26.75 12.375H36.8125V15.25H26.75V12.375ZM26.75 21H41.125V23.875H26.75V21ZM26.75 29.625H36.8125V32.5H26.75V29.625Z" fill="#F4F738" stroke="#F4F738" stroke-width="1.2"/>
</svg>
