<svg width="40" height="40" viewBox="0 0 40 40" fill="none" xmlns="http://www.w3.org/2000/svg">
<path d="M20 1C30.4934 1 39 9.50659 39 20C39 30.4934 30.4934 39 20 39C9.50659 39 1 30.4934 1 20C1 9.50659 9.50659 1 20 1Z" stroke="#FFF9F9" stroke-width="2"/>
<path d="M21.3336 29V27.3036C21.3336 24.4931 18.7749 22.2145 15.6189 22.2145H13.7149C10.5589 22.2145 8.00024 24.4931 8.00024 27.3036V29M24.3816 22.2145H26.2856C29.4416 22.2145 32.0002 24.4931 32.0002 27.3036V29M24.0002 10.2314C24.6035 10.0151 25.2488 9.94911 25.8823 10.0391C26.5157 10.129 27.1187 10.3722 27.6407 10.7484C28.1627 11.1245 28.5885 11.6225 28.8823 12.2007C29.1762 12.7789 29.3295 13.4203 29.3295 14.0713C29.3295 14.7222 29.1762 15.3637 28.8823 15.9419C28.5885 16.5201 28.1627 17.0181 27.6407 17.3942C27.1187 17.7703 26.5157 18.0136 25.8823 18.1035C25.2488 18.1935 24.6035 18.1275 24.0002 17.9112M18.6669 14.072C18.6669 15.1517 18.2455 16.1873 17.4953 16.9508C16.7452 17.7143 15.7278 18.1432 14.6669 18.1432C13.606 18.1432 12.5886 17.7143 11.8385 16.9508C11.0883 16.1873 10.6669 15.1517 10.6669 14.072C10.6669 12.9922 11.0883 11.9566 11.8385 11.1931C12.5886 10.4296 13.606 10.0007 14.6669 10.0007C15.7278 10.0007 16.7452 10.4296 17.4953 11.1931C18.2455 11.9566 18.6669 12.9922 18.6669 14.072Z" stroke="white" stroke-width="2" stroke-linecap="round" stroke-linejoin="round"/>
</svg>
