<svg width="48" height="48" viewBox="0 0 48 48" fill="none" xmlns="http://www.w3.org/2000/svg">
<path d="M24 0.5C36.9787 0.5 47.5 11.0213 47.5 24C47.5 36.9787 36.9787 47.5 24 47.5C11.0213 47.5 0.5 36.9787 0.5 24C0.5 11.0213 11.0213 0.5 24 0.5Z" stroke="#FFF9F9"/>
<path d="M25.6001 34.8V32.7644C25.6001 29.3917 22.5297 26.6574 18.7425 26.6574H16.4577C12.6705 26.6574 9.6001 29.3917 9.6001 32.7644V34.8M29.2577 26.6574H31.5425C35.3297 26.6574 38.4001 29.3917 38.4001 32.7644V34.8M28.8001 12.2777C29.5239 12.0181 30.2984 11.9389 31.0585 12.0469C31.8186 12.1548 32.5422 12.4467 33.1686 12.898C33.795 13.3494 34.306 13.947 34.6586 14.6408C35.0112 15.3346 35.1952 16.1044 35.1952 16.8855C35.1952 17.6667 35.0112 18.4364 34.6586 19.1303C34.306 19.8241 33.795 20.4217 33.1686 20.8731C32.5422 21.3244 31.8186 21.6163 31.0585 21.7242C30.2984 21.8322 29.5239 21.753 28.8001 21.4934M22.4001 16.8864C22.4001 18.1821 21.8944 19.4247 20.9942 20.341C20.094 21.2572 18.8731 21.7719 17.6001 21.7719C16.3271 21.7719 15.1062 21.2572 14.206 20.341C13.3058 19.4247 12.8001 18.1821 12.8001 16.8864C12.8001 15.5906 13.3058 14.348 14.206 13.4318C15.1062 12.5155 16.3271 12.0008 17.6001 12.0008C18.8731 12.0008 20.094 12.5155 20.9942 13.4318C21.8944 14.348 22.4001 15.5906 22.4001 16.8864Z" stroke="white" stroke-linecap="round" stroke-linejoin="round"/>
</svg>
