<svg width="26" height="36" viewBox="0 0 26 36" fill="none" xmlns="http://www.w3.org/2000/svg">
<path d="M24.4453 23.0313C24.4453 29.9783 20.0721 34.3516 13.125 34.3516C6.17794 34.3516 1.80469 29.9783 1.80469 23.0313C1.80469 15.5764 9.91994 5.51232 12.4088 2.60127C12.4974 2.49785 12.6073 2.41482 12.731 2.35789C12.8547 2.30096 12.9892 2.27148 13.1254 2.27148C13.2616 2.27148 13.3961 2.30096 13.5198 2.35789C13.6435 2.41482 13.7534 2.49785 13.842 2.60127C16.3301 5.51232 24.4453 15.5764 24.4453 23.0313Z" stroke="#03A9F4" stroke-width="3" stroke-miterlimit="10"/>
<path d="M20.043 23.6602C20.043 25.1613 19.4466 26.601 18.3851 27.6625C17.3237 28.724 15.884 29.3203 14.3828 29.3203" stroke="#03A9F4" stroke-linecap="round" stroke-linejoin="round"/>
</svg>
