<svg width="286" height="62" viewBox="0 0 286 62" fill="none" xmlns="http://www.w3.org/2000/svg">
<path d="M18.75 49.4C15.15 49.4 12.1 48.65 9.6 47.15C7.1 45.6167 5.2 43.5 3.9 40.8C2.63333 38.0667 2 34.9167 2 31.35C2 28.65 2.35 26.2 3.05 24C3.78333 21.8 4.85 19.9 6.25 18.3C7.68333 16.6667 9.43333 15.4167 11.5 14.55C13.5667 13.65 15.95 13.2 18.65 13.2C21.2833 13.2 23.6333 13.6333 25.7 14.5C27.8 15.3333 29.5167 16.5667 30.85 18.2C32.2167 19.8333 33.1333 21.8333 33.6 24.2H27.15C26.8833 23.0667 26.3667 22.1167 25.6 21.35C24.8667 20.5833 23.9333 20 22.8 19.6C21.6667 19.2 20.3667 19 18.9 19C17 19 15.3833 19.3333 14.05 20C12.7167 20.6667 11.6333 21.5833 10.8 22.75C9.96667 23.8833 9.35 25.2 8.95 26.7C8.58333 28.1667 8.4 29.7333 8.4 31.4C8.4 33.5667 8.75 35.5833 9.45 37.45C10.1833 39.3167 11.3167 40.8167 12.85 41.95C14.4167 43.05 16.45 43.6 18.95 43.6C20.7167 43.6 22.2667 43.3 23.6 42.7C24.9667 42.1 26.0333 41.2333 26.8 40.1C27.6 38.9333 28.0333 37.5 28.1 35.8H17.8V30.4H34.4V32.7C34.4 36.1333 33.8 39.1 32.6 41.6C31.4 44.1 29.6333 46.0333 27.3 47.4C25 48.7333 22.15 49.4 18.75 49.4ZM39.327 49V22.65H44.877L45.227 26.1C45.8936 25.1 46.6436 24.3333 47.477 23.8C48.3436 23.2333 49.2603 22.8333 50.227 22.6C51.227 22.3667 52.227 22.25 53.227 22.25C53.5936 22.25 53.927 22.25 54.227 22.25C54.5603 22.25 54.827 22.2667 55.027 22.3V28.1H53.427C51.6936 28.1 50.227 28.4333 49.027 29.1C47.827 29.7667 46.927 30.7167 46.327 31.95C45.727 33.1833 45.427 34.7 45.427 36.5V49H39.327ZM69.9258 49.35C67.1924 49.35 64.8591 48.7833 62.9258 47.65C61.0258 46.5167 59.5758 44.95 58.5758 42.95C57.6091 40.9167 57.1258 38.5667 57.1258 35.9C57.1258 33.2333 57.6258 30.8833 58.6258 28.85C59.6591 26.7833 61.1258 25.1667 63.0258 24C64.9591 22.8333 67.2758 22.25 69.9758 22.25C71.9758 22.25 73.7258 22.6167 75.2258 23.35C76.7258 24.05 77.9758 25.0167 78.9758 26.25C80.0091 27.4833 80.7758 28.8833 81.2758 30.45C81.7758 32.0167 82.0091 33.6667 81.9758 35.4C81.9424 35.8 81.9091 36.2 81.8758 36.6C81.8425 36.9667 81.7924 37.3667 81.7258 37.8H63.2258C63.3258 38.9667 63.6258 40.0333 64.1258 41C64.6591 41.9667 65.3924 42.7333 66.3258 43.3C67.2924 43.8667 68.4924 44.15 69.9258 44.15C70.7591 44.15 71.5591 44.05 72.3258 43.85C73.0924 43.6167 73.7591 43.2833 74.3258 42.85C74.9258 42.4167 75.3258 41.8667 75.5258 41.2H81.6258C81.1924 43.1 80.3924 44.65 79.2258 45.85C78.0591 47.05 76.6591 47.9333 75.0258 48.5C73.4258 49.0667 71.7258 49.35 69.9258 49.35ZM63.3258 33.25H76.0258C76.0258 32.15 75.7758 31.15 75.2758 30.25C74.7758 29.35 74.0591 28.65 73.1258 28.15C72.2258 27.6167 71.1258 27.35 69.8258 27.35C68.4258 27.35 67.2591 27.6333 66.3258 28.2C65.3924 28.7667 64.6758 29.5 64.1758 30.4C63.6758 31.3 63.3924 32.25 63.3258 33.25ZM115.548 49V22.65H121.248L121.598 26C122.298 25.0667 123.114 24.3333 124.048 23.8C124.981 23.2667 125.964 22.8833 126.998 22.65C128.031 22.3833 128.998 22.25 129.898 22.25C132.398 22.25 134.364 22.8 135.798 23.9C137.264 25 138.298 26.4667 138.898 28.3C139.498 30.1333 139.798 32.1833 139.798 34.45V49H133.698V35.45C133.698 34.4833 133.631 33.55 133.498 32.65C133.364 31.7167 133.098 30.8833 132.698 30.15C132.331 29.4167 131.798 28.8333 131.098 28.4C130.398 27.9667 129.464 27.75 128.298 27.75C126.864 27.75 125.648 28.1333 124.648 28.9C123.648 29.6667 122.898 30.7 122.398 32C121.898 33.2667 121.648 34.7167 121.648 36.35V49H115.548ZM173.594 49.4C171.227 49.4 168.994 49.05 166.894 48.35C164.827 47.6167 163.094 46.4667 161.694 44.9C160.294 43.3 159.377 41.2167 158.944 38.65H165.294C165.694 39.95 166.327 40.9667 167.194 41.7C168.094 42.4333 169.144 42.95 170.344 43.25C171.544 43.5167 172.761 43.65 173.994 43.65C175.094 43.65 176.127 43.5167 177.094 43.25C178.094 42.95 178.911 42.4667 179.544 41.8C180.211 41.1333 180.544 40.25 180.544 39.15C180.544 38.3167 180.361 37.65 179.994 37.15C179.661 36.6167 179.177 36.1833 178.544 35.85C177.944 35.4833 177.211 35.2 176.344 35C175.511 34.7333 174.611 34.5 173.644 34.3C172.677 34.1 171.727 33.8833 170.794 33.65C169.861 33.4167 168.977 33.1167 168.144 32.75C167.077 32.3833 166.044 31.9667 165.044 31.5C164.077 31 163.227 30.4 162.494 29.7C161.794 29 161.227 28.1333 160.794 27.1C160.361 26.0667 160.144 24.8333 160.144 23.4C160.144 21.7667 160.411 20.3667 160.944 19.2C161.511 18 162.244 17.0167 163.144 16.25C164.077 15.4833 165.111 14.8833 166.244 14.45C167.411 14.0167 168.611 13.7 169.844 13.5C171.111 13.3 172.311 13.2 173.444 13.2C175.644 13.2 177.644 13.5667 179.444 14.3C181.277 15.0333 182.777 16.1667 183.944 17.7C185.111 19.2333 185.777 21.2 185.944 23.6H179.894C179.761 22.4667 179.361 21.5667 178.694 20.9C178.027 20.2 177.194 19.7 176.194 19.4C175.194 19.0667 174.111 18.9 172.944 18.9C172.144 18.9 171.344 18.9667 170.544 19.1C169.777 19.2333 169.077 19.4667 168.444 19.8C167.844 20.1333 167.344 20.5833 166.944 21.15C166.577 21.6833 166.394 22.3667 166.394 23.2C166.394 23.9333 166.577 24.5833 166.944 25.15C167.311 25.6833 167.811 26.1333 168.444 26.5C169.111 26.8667 169.894 27.2 170.794 27.5C171.961 27.9667 173.227 28.3167 174.594 28.55C175.994 28.7833 177.311 29.1 178.544 29.5C179.744 29.8333 180.844 30.25 181.844 30.75C182.877 31.2167 183.761 31.8 184.494 32.5C185.227 33.1667 185.794 34 186.194 35C186.627 35.9667 186.844 37.1333 186.844 38.5C186.844 40.5 186.477 42.2 185.744 43.6C185.044 44.9667 184.061 46.0833 182.794 46.95C181.561 47.8167 180.144 48.45 178.544 48.85C176.977 49.2167 175.327 49.4 173.594 49.4ZM203.955 61.05C201.922 61.05 199.939 60.7667 198.005 60.2C196.105 59.6667 194.339 58.75 192.705 57.45L194.905 52.55C196.039 53.45 197.305 54.15 198.705 54.65C200.105 55.1833 201.639 55.45 203.305 55.45C205.939 55.45 207.855 54.7833 209.055 53.45C210.289 52.1167 210.905 50.3 210.905 48V46.05C210.305 46.8167 209.572 47.45 208.705 47.95C207.839 48.45 206.905 48.8167 205.905 49.05C204.905 49.2833 203.889 49.4 202.855 49.4C200.289 49.4 198.239 48.8833 196.705 47.85C195.205 46.7833 194.122 45.3333 193.455 43.5C192.789 41.6333 192.455 39.5167 192.455 37.15V22.65H198.505V35.8C198.505 36.7333 198.572 37.6833 198.705 38.65C198.839 39.6167 199.105 40.5 199.505 41.3C199.905 42.1 200.489 42.75 201.255 43.25C202.055 43.7167 203.105 43.95 204.405 43.95C206.105 43.95 207.422 43.5333 208.355 42.7C209.289 41.8667 209.922 40.7833 210.255 39.45C210.622 38.1167 210.805 36.7 210.805 35.2V22.65H216.905V46.5C216.905 48.7333 216.672 50.7333 216.205 52.5C215.739 54.3 214.989 55.8333 213.955 57.1C212.922 58.3667 211.589 59.3333 209.955 60C208.322 60.7 206.322 61.05 203.955 61.05ZM222.823 49V22.65H228.523L228.873 26C229.573 25.0667 230.39 24.3333 231.323 23.8C232.256 23.2667 233.24 22.8833 234.273 22.65C235.306 22.3833 236.273 22.25 237.173 22.25C239.673 22.25 241.64 22.8 243.073 23.9C244.54 25 245.573 26.4667 246.173 28.3C246.773 30.1333 247.073 32.1833 247.073 34.45V49H240.973V35.45C240.973 34.4833 240.906 33.55 240.773 32.65C240.64 31.7167 240.373 30.8833 239.973 30.15C239.606 29.4167 239.073 28.8333 238.373 28.4C237.673 27.9667 236.74 27.75 235.573 27.75C234.14 27.75 232.923 28.1333 231.923 28.9C230.923 29.6667 230.173 30.7 229.673 32C229.173 33.2667 228.923 34.7167 228.923 36.35V49H222.823ZM264.404 49.35C261.67 49.35 259.37 48.8 257.504 47.7C255.637 46.5667 254.22 44.9833 253.254 42.95C252.287 40.9167 251.804 38.5667 251.804 35.9C251.804 33.2333 252.304 30.8833 253.304 28.85C254.304 26.7833 255.77 25.1667 257.704 24C259.637 22.8333 261.987 22.25 264.754 22.25C266.787 22.25 268.587 22.6 270.154 23.3C271.754 24 273.037 25.0333 274.004 26.4C275.004 27.7333 275.637 29.4 275.904 31.4H269.904C269.504 30.1333 268.837 29.2167 267.904 28.65C267.004 28.05 265.92 27.75 264.654 27.75C262.954 27.75 261.604 28.1667 260.604 29C259.637 29.8 258.937 30.8167 258.504 32.05C258.07 33.2833 257.854 34.5667 257.854 35.9C257.854 37.3 258.087 38.6167 258.554 39.85C259.02 41.05 259.737 42.0167 260.704 42.75C261.704 43.4833 262.987 43.85 264.554 43.85C265.82 43.85 266.954 43.5667 267.954 43C268.987 42.4333 269.654 41.5167 269.954 40.25H276.154C275.92 42.2833 275.237 43.9833 274.104 45.35C273.004 46.6833 271.604 47.6833 269.904 48.35C268.204 49.0167 266.37 49.35 264.404 49.35Z" fill="white"/>
<path d="M98.6367 49.35C95.9034 49.35 93.5701 48.7833 91.6367 47.65C89.7367 46.5167 88.2867 44.95 87.2867 42.95C86.3201 40.9167 85.8367 38.5667 85.8367 35.9C85.8367 33.2333 86.3367 30.8833 87.3367 28.85C88.3701 26.7833 89.8367 25.1667 91.7367 24C93.6701 22.8333 95.9867 22.25 98.6867 22.25C100.687 22.25 102.437 22.6167 103.937 23.35C105.437 24.05 106.687 25.0167 107.687 26.25C108.72 27.4833 109.487 28.8833 109.987 30.45C110.487 32.0167 110.72 33.6667 110.687 35.4C110.653 35.8 110.62 36.2 110.587 36.6C110.553 36.9667 110.503 37.3667 110.437 37.8H91.9367C92.0367 38.9667 92.3367 40.0333 92.8367 41C93.3701 41.9667 94.1034 42.7333 95.0367 43.3C96.0034 43.8667 97.2034 44.15 98.6367 44.15C99.4701 44.15 100.27 44.05 101.037 43.85C101.803 43.6167 102.47 43.2833 103.037 42.85C103.637 42.4167 104.037 41.8667 104.237 41.2H110.337C109.903 43.1 109.103 44.65 107.937 45.85C106.77 47.05 105.37 47.9333 103.737 48.5C102.137 49.0667 100.437 49.35 98.6367 49.35ZM92.0367 33.25H104.737C104.737 32.15 104.487 31.15 103.987 30.25C103.487 29.35 102.77 28.65 101.837 28.15C100.937 27.6167 99.8367 27.35 98.5367 27.35C97.1367 27.35 95.9701 27.6333 95.0367 28.2C94.1034 28.7667 93.3867 29.5 92.8867 30.4C92.3867 31.3 92.1034 32.25 92.0367 33.25Z" fill="#4CAF50"/>
<path d="M123 0V2.21053C123 12.8509 117.03 17.6842 109.667 17.6842H107.554C107.79 14.3552 108.832 12.3403 111.552 9.94626C112.889 8.76916 112.776 8.08942 112.117 8.47958C107.58 11.1654 105.325 14.7951 105.225 20.5911L105.222 21H103C103 19.4935 103.129 18.1263 103.384 16.8752C103.13 15.4449 103.002 13.5041 103.001 11.0526C103.001 4.94826 107.975 0 114.112 0C116.334 0 118.556 1.10526 123 0Z" fill="#4CAF50"/>
</svg>
